<?xml version="1.0" ?><svg id="Layer_1" style="enable-background:new 0 0 128 128;" version="1.1" viewBox="0 0 128 128" xml:space="preserve" xmlns="http://www.w3.org/2000/svg" xmlns:xlink="http://www.w3.org/1999/xlink"><style type="text/css">
	.st0{fill:#f5f0e3;}
	.st1{fill:none;stroke:#444B54;stroke-width:6;stroke-linecap:round;stroke-linejoin:round;stroke-miterlimit:10;}
	.st2{fill:#76ECFF;}
	.st3{fill:#E4E7E7;}
	.st4{fill:#FF697B;}
	.st5{fill:#659EC9;}
	.st6{fill:#ff6f5e;}
	.st7{fill:#A4F4C4;}
	.st8{fill:#06A18C;}
	.st9{fill:#8FE5B5;}
	.st10{opacity:0.5;fill:#06A18C;}
	.st11{opacity:0.5;}
	.st12{fill:#FFDBAB;}
	.st13{fill:#D18669;}
	.st14{fill:#FCF09D;}
	.st15{fill:none;stroke:#FFFFFF;stroke-miterlimit:10;}
	.st16{fill:#EDECEB;}
	.st17{fill:#4FBBC6;}
	.st18{display:none;}
	.st19{display:inline;fill:#5EC8D3;}
	.st20{display:inline;}
	.st21{fill:#ED74A5;}
	.st22{fill:#C12762;}
</style><g><path class="st6" d="M104.1,42.2c-0.8-4.9-2.1-7.4-5.1-10.8c0.5-3.3,0.6-6.6,0.2-9.9c-0.1-0.8-0.2-1.5-0.3-2.3   c-0.2-1.2-0.5-2.4-0.8-3.6L98,15c0-0.2-0.1-0.3-0.2-0.5c0,0-0.1-0.1-0.1-0.1c-0.1-0.1-0.1-0.2-0.2-0.3c0-0.1-0.1-0.1-0.1-0.1   c-0.1-0.1-0.1-0.2-0.2-0.2c0,0-0.1-0.1-0.1-0.1c-0.1-0.1-0.2-0.1-0.3-0.2c0,0-0.1-0.1-0.1-0.1c-0.1-0.1-0.3-0.1-0.4-0.2   c0,0,0,0-0.1,0c-0.2-0.1-0.3-0.1-0.5-0.1c0,0-0.1,0-0.2,0c-0.1,0-0.2,0-0.3,0c0,0,0,0-0.1,0c-0.2,0-0.4,0-0.7,0.1L94,13.3   c-1.3,0.3-2.5,0.7-3.7,1.2C88.5,15.2,86.7,16,85,17c-1.7,1-3.3,2.1-4.9,3.3c-2.5-0.7-5.1-1.3-7.8-1.6c-2.7-0.4-5.5-0.6-8.4-0.6   s-5.7,0.2-8.4,0.6c-2.7,0.4-5.3,0.9-7.8,1.6C46.3,19.1,44.7,18,43,17c-1.7-1-3.5-1.8-5.3-2.5c-1.2-0.5-2.5-0.9-3.7-1.2l-0.6-0.2   C33.1,13,32.9,13,32.7,13c0,0,0,0-0.1,0c-0.1,0-0.2,0-0.3,0c0,0-0.1,0-0.1,0c-0.2,0-0.3,0.1-0.5,0.1c0,0,0,0,0,0   c-0.1,0.1-0.3,0.1-0.4,0.2c0,0-0.1,0.1-0.1,0.1c-0.1,0.1-0.2,0.1-0.3,0.2c0,0-0.1,0.1-0.1,0.1c-0.1,0.1-0.2,0.1-0.2,0.2   c0,0-0.1,0.1-0.1,0.1c-0.1,0.1-0.1,0.2-0.2,0.3c0,0-0.1,0.1-0.1,0.1C30.1,14.7,30,14.9,30,15l-0.2,0.6c-0.5,1.9-0.9,3.9-1.1,5.8   c-0.1,0.7-0.1,1.3-0.2,2s-0.1,1.3-0.1,2c0,2,0.2,4,0.5,5.9c-1.9,2.1-3.1,3.9-3.9,6.1c-0.5,1.3-0.9,2.8-1.2,4.7   c-0.3,1.5-0.4,3.1-0.4,4.6v0l0,0c0,10,5.2,19.1,13.5,24.2c1.2,0.7,2.4,1.4,3.8,1.9C47.2,75.6,55.1,77,64,77s16.8-1.4,23.2-4.1   c1.3-0.5,2.6-1.2,3.8-1.9c8.3-5.1,13.5-14.2,13.5-24.2C104.5,45.3,104.4,43.7,104.1,42.2z"/><path class="st6" d="M87,109c-1.1,0-2-0.9-2-2l0-7c0-11.6-9.4-21-21-21c-8.4,0-15.6,4.9-18.9,12h-5.2c-2.6,0-5-1.4-6.3-3.5   l-1.9-3.2c-2-3.2-4.8-5.8-8.2-7.3l-3.1-1.5c-1.5-0.7-3.3-0.1-4,1.5c-0.7,1.5-0.1,3.3,1.5,4l3.1,1.5c2.3,1.1,4.3,2.8,5.6,5l1.9,3.2   c2.4,4,6.8,6.4,11.4,6.4h3.4c-0.1,1-0.2,2-0.2,3l0,7c0,1.1-0.9,2-2,2c-1.7,0-3,1.3-3,3s1.3,3,3,3c4.4,0,8-3.6,8-8l0-7   c0-4.9,2.4-9.2,6-12v16.9c0,3.8-1.5,7.3-4.1,10c-1.2,1.2-1.2,3.1,0,4.2c0.6,0.6,1.4,0.9,2.1,0.9s1.5-0.3,2.1-0.9   c3.8-3.8,5.9-8.8,5.9-14.2V85.3c1-0.2,2-0.3,3-0.3s2,0.1,3,0.3v19.6c0,5.4,2.1,10.4,5.9,14.2c0.6,0.6,1.4,0.9,2.1,0.9   s1.5-0.3,2.1-0.9c1.2-1.2,1.2-3.1,0-4.2c-2.7-2.7-4.1-6.2-4.1-10V88c3.6,2.7,6,7.1,6,12l0,7c0,4.4,3.6,8,8,8c1.7,0,3-1.3,3-3   S88.7,109,87,109z"/><g><path class="st0" d="M94,54.4c0-0.4,0-0.8,0-1.1v0c0-9-7.3-16.3-16.3-16.3H50.3c-9,0-16.3,7.3-16.3,16.3v0c0,0.4,0,0.8,0,1.1    c0.4,6.9,5.5,12.5,12.2,14.4C51.5,70.2,57.5,71,64,71s12.5-0.8,17.8-2.2C88.4,66.9,93.5,61.3,94,54.4z"/></g><g><circle class="st6" cx="47" cy="55" r="4.5"/></g><g><circle class="st6" cx="81" cy="55" r="4.5"/></g></g></svg>
